<?xml version="1.0" encoding="utf-8"?>
<!-- Generator: Adobe Illustrator 26.0.3, SVG Export Plug-In . SVG Version: 6.00 Build 0)  -->
<svg version="1.1" id="Capa_1" xmlns="http://www.w3.org/2000/svg" xmlns:xlink="http://www.w3.org/1999/xlink" x="0px" y="0px"
	 viewBox="0 0 180 60" style="enable-background:new 0 0 180 60;" xml:space="preserve">
<style type="text/css">
	.st0{fill:#30C7B5;}
</style>
<path class="st0" d="M46.46,39.12V15.56h2.7v23.56H46.46z"/>
<g>
	<g>
		<path class="st0" d="M5.21,15.56h30.31v3.39H5.21V15.56z"/>
		<path class="st0" d="M5.21,41.93h30.31v3.39H5.21V41.93z"/>
		<path class="st0" d="M35.52,32.62v8.57h-3.39v-5.25L35.52,32.62z"/>
		<path class="st0" d="M8.59,34.48v9.69H5.21V37.8L8.59,34.48z"/>
		<path class="st0" d="M5.21,30.9V19.95h3.39v7.76L5.21,30.9z"/>
		<path class="st0" d="M5.21,32.09l12.14-12.14l2.39,2.39L5.21,36.66L5.21,32.09z"/>
		<path class="st0" d="M25.36,32.62L15.09,22.35l2.39-2.39l10.27,10.27L25.36,32.62z"/>
		<path class="st0" d="M32.13,28.91V18.54h3.39v7L32.13,28.91z"/>
		<path class="st0" d="M35.52,31.44l-9.75,9.75l-2.39-2.39l12.14-12.14L35.52,31.44z"/>
		<path class="st0" d="M17.76,28.52l10.27,10.27l-2.39,2.39L15.36,30.92L17.76,28.52z"/>
	</g>
</g>
<path class="st0" d="M51.74,15.56H174v2.7H51.74V15.56z"/>
<path class="st0" d="M46.46,42.62h62.3v2.7h-62.3V42.62z"/>
<path class="st0" d="M118.14,42.62H174v2.7h-55.86V42.62z"/>
<path class="st0" d="M53.09,39.12V21.76h2.22l9.12,13.39h-1.1V21.76h2.66v17.36h-2.22l-9.1-13.39h1.1v13.39H53.09z"/>
<path class="st0" d="M72.86,39.12V24.49h-4.82v-2.73h12.34v2.73h-4.82v14.63H72.86z"/>
<path class="st0" d="M85.12,36.39h8.21v2.73H82.42V21.76h10.61v2.73h-7.91V36.39z M84.91,28.98h7.23v2.65h-7.23V28.98z"/>
<path class="st0" d="M96.34,39.12V21.76h5.98c1.29,0,2.39,0.24,3.31,0.73c0.92,0.49,1.63,1.19,2.13,2.12
	c0.5,0.93,0.75,2.03,0.75,3.32c0,1.27-0.25,2.36-0.75,3.27c-0.5,0.91-1.21,1.61-2.13,2.11c-0.92,0.5-2.03,0.74-3.31,0.74h-4.47
	l1.18-1.44v6.5H96.34z M99.04,32.97l-1.18-1.56h4.34c1.19,0,2.09-0.31,2.69-0.92c0.6-0.61,0.9-1.46,0.9-2.55
	c0-1.09-0.3-1.94-0.9-2.54c-0.6-0.6-1.5-0.91-2.69-0.91h-4.34l1.18-1.59V32.97z M105.85,39.12l-3.68-6.3h2.89l3.7,6.3H105.85z"/>
<path class="st0" d="M111.52,45.32V21.76h2.7v23.56H111.52z"/>
<path class="st0" d="M118.14,39.12V21.76h2.22l9.12,13.39h-1.1V21.76h2.66v17.36h-2.22l-9.1-13.39h1.1v13.39H118.14z"/>
<path class="st0" d="M139.17,39.12l-6.35-17.36h2.93l5.67,15.7h-1.7l5.77-15.7h2.68l-6.33,17.36H139.17z"/>
<path class="st0" d="M152.4,36.39h8.21v2.73H149.7V21.76h10.61v2.73h-7.91V36.39z M152.19,28.98h7.23v2.65h-7.23V28.98z"/>
<path class="st0" d="M168.12,39.37c-1.14,0-2.22-0.19-3.25-0.58s-1.86-0.89-2.48-1.5l0.93-2.5c0.58,0.55,1.3,1,2.16,1.36
	c0.86,0.36,1.74,0.55,2.64,0.55c0.76,0,1.38-0.1,1.85-0.3c0.47-0.2,0.82-0.47,1.04-0.81c0.22-0.34,0.33-0.72,0.33-1.15
	c0-0.53-0.16-0.95-0.48-1.28c-0.32-0.32-0.73-0.58-1.24-0.77c-0.5-0.19-1.07-0.36-1.68-0.52c-0.62-0.16-1.23-0.35-1.85-0.58
	c-0.62-0.23-1.18-0.52-1.69-0.88c-0.51-0.36-0.92-0.83-1.24-1.43c-0.31-0.59-0.47-1.36-0.47-2.28c0-0.94,0.21-1.81,0.63-2.59
	c0.42-0.79,1.07-1.41,1.93-1.88c0.87-0.47,1.96-0.71,3.29-0.71c0.87,0,1.74,0.13,2.6,0.4c0.86,0.27,1.61,0.64,2.24,1.14l-0.85,2.5
	c-0.65-0.46-1.32-0.81-2.02-1.03s-1.36-0.33-1.99-0.33c-0.73,0-1.34,0.11-1.81,0.32c-0.47,0.21-0.82,0.5-1.03,0.86
	c-0.21,0.36-0.32,0.75-0.32,1.18c0,0.53,0.16,0.95,0.47,1.28c0.31,0.32,0.72,0.57,1.22,0.76c0.51,0.18,1.07,0.36,1.69,0.52
	c0.62,0.17,1.24,0.36,1.85,0.58c0.61,0.22,1.17,0.51,1.68,0.87c0.51,0.36,0.92,0.83,1.24,1.41c0.31,0.59,0.47,1.33,0.47,2.24
	c0,0.93-0.21,1.78-0.63,2.57c-0.42,0.79-1.07,1.41-1.94,1.88C170.55,39.13,169.45,39.37,168.12,39.37z"/>
</svg>
