<svg id="Capa_1" data-name="Capa 1" xmlns="http://www.w3.org/2000/svg" viewBox="0 0 175.79 31.66"><defs><style>.cls-1{fill:#86c178;}</style></defs><path class="cls-1" d="M42.29,39.68V14.61h2.87V39.68Z" transform="translate(-2.21 -14.61)"/><path class="cls-1" d="M2.21,14.61H34.46v3.6H2.21Z" transform="translate(-2.21 -14.61)"/><path class="cls-1" d="M2.21,42.67H34.46v3.6H2.21Z" transform="translate(-2.21 -14.61)"/><path class="cls-1" d="M34.46,32.75v9.12h-3.6V36.28Z" transform="translate(-2.21 -14.61)"/><path class="cls-1" d="M5.81,34.74V45.05H2.21V38.27Z" transform="translate(-2.21 -14.61)"/><path class="cls-1" d="M2.21,30.93V19.28h3.6v8.26Z" transform="translate(-2.21 -14.61)"/><path class="cls-1" d="M2.21,32.2,15.13,19.28l2.54,2.55L2.21,37.06Z" transform="translate(-2.21 -14.61)"/><path class="cls-1" d="M23.65,32.75,12.72,21.83l2.55-2.55L26.2,30.21Z" transform="translate(-2.21 -14.61)"/><path class="cls-1" d="M30.86,28.81v-11h3.6v7.44Z" transform="translate(-2.21 -14.61)"/><path class="cls-1" d="M34.46,31.5,24.09,41.87l-2.55-2.54L34.46,26.41Z" transform="translate(-2.21 -14.61)"/><path class="cls-1" d="M15.56,28.4,26.49,39.33l-2.55,2.54L13,31Z" transform="translate(-2.21 -14.61)"/><path class="cls-1" d="M47.9,14.61H178v2.87H47.9Z" transform="translate(-2.21 -14.61)"/><path class="cls-1" d="M42.29,43.4h66.29v2.87H42.29Z" transform="translate(-2.21 -14.61)"/><path class="cls-1" d="M118.57,43.4H178v2.87H118.57Z" transform="translate(-2.21 -14.61)"/><path class="cls-1" d="M49.34,39.68V21.21H51.7l9.71,14.25H60.24V21.21h2.82V39.68H60.7L51,25.43h1.17V39.68Z" transform="translate(-2.21 -14.61)"/><path class="cls-1" d="M70.38,39.68V24.11H65.25v-2.9H78.38v2.9H73.25V39.68Z" transform="translate(-2.21 -14.61)"/><path class="cls-1" d="M83.42,36.78h8.73v2.9H80.55V21.21H91.84v2.9H83.42Zm-.22-7.9h7.69v2.83H83.2Z" transform="translate(-2.21 -14.61)"/><path class="cls-1" d="M95.36,39.68V21.21h6.36a7.45,7.45,0,0,1,3.53.78,5.33,5.33,0,0,1,2.26,2.25,7.26,7.26,0,0,1,.8,3.54,7,7,0,0,1-.8,3.48,5.42,5.42,0,0,1-2.26,2.24,7.33,7.33,0,0,1-3.53.79H97l1.26-1.53v6.92Zm2.87-6.55L97,31.47h4.62a3.84,3.84,0,0,0,2.86-1,3.73,3.73,0,0,0,1-2.72,3.68,3.68,0,0,0-1-2.71,3.88,3.88,0,0,0-2.86-1H97l1.26-1.69Zm7.25,6.55L101.57,33h3.07l3.94,6.7Z" transform="translate(-2.21 -14.61)"/><path class="cls-1" d="M111.52,46.27V21.21h2.87V46.27Z" transform="translate(-2.21 -14.61)"/><path class="cls-1" d="M118.57,39.68V21.21h2.36l9.7,14.25h-1.17V21.21h2.83V39.68h-2.37l-9.68-14.25h1.17V39.68Z" transform="translate(-2.21 -14.61)"/><path class="cls-1" d="M140.93,39.68l-6.76-18.47h3.12l6,16.7h-1.81l6.14-16.7h2.86l-6.75,18.47Z" transform="translate(-2.21 -14.61)"/><path class="cls-1" d="M155,36.78h8.74v2.9H152.14V21.21h11.29v2.9H155Zm-.22-7.9h7.7v2.83h-7.7Z" transform="translate(-2.21 -14.61)"/><path class="cls-1" d="M171.74,39.94a9.76,9.76,0,0,1-3.45-.62,7.38,7.38,0,0,1-2.65-1.6l1-2.66a7.73,7.73,0,0,0,2.3,1.45,7.06,7.06,0,0,0,2.8.58,5.15,5.15,0,0,0,2-.31,2.48,2.48,0,0,0,1.11-.86,2.24,2.24,0,0,0,.35-1.23,1.85,1.85,0,0,0-.51-1.36,3.71,3.71,0,0,0-1.31-.82c-.54-.2-1.14-.38-1.79-.55a18.64,18.64,0,0,1-2-.62,8.08,8.08,0,0,1-1.8-.94,4.17,4.17,0,0,1-1.32-1.52,5.21,5.21,0,0,1-.49-2.42,5.75,5.75,0,0,1,.67-2.76,4.94,4.94,0,0,1,2.06-2,7.29,7.29,0,0,1,3.5-.75,9.34,9.34,0,0,1,2.76.42,7.59,7.59,0,0,1,2.39,1.22l-.91,2.66a7.87,7.87,0,0,0-2.14-1.09,6.84,6.84,0,0,0-2.12-.36,4.61,4.61,0,0,0-1.92.35,2.3,2.3,0,0,0-1.1.91,2.32,2.32,0,0,0-.34,1.25,1.88,1.88,0,0,0,.49,1.36,3.42,3.42,0,0,0,1.31.8c.54.2,1.14.38,1.8.56a20.39,20.39,0,0,1,2,.62,7.57,7.57,0,0,1,1.79.92,4.19,4.19,0,0,1,1.31,1.51,5.06,5.06,0,0,1,.5,2.38,5.63,5.63,0,0,1-.67,2.73,4.9,4.9,0,0,1-2.07,2A7.37,7.37,0,0,1,171.74,39.94Z" transform="translate(-2.21 -14.61)"/></svg>