<?xml version="1.0" encoding="utf-8"?>
<!-- Generator: Adobe Illustrator 26.0.3, SVG Export Plug-In . SVG Version: 6.00 Build 0)  -->
<svg version="1.1" id="Capa_1" xmlns="http://www.w3.org/2000/svg" xmlns:xlink="http://www.w3.org/1999/xlink" x="0px" y="0px"
	 viewBox="0 0 180 60" style="enable-background:new 0 0 180 60;" xml:space="preserve">
<style type="text/css">
	.st0{fill:#30C7B5;}
</style>
<path class="st0" d="M42.29,39.68V14.61h2.87v25.07H42.29z"/>
<g>
	<g>
		<path class="st0" d="M2.21,14.61h32.25v3.6H2.21V14.61z"/>
		<path class="st0" d="M2.21,42.67h32.25v3.6H2.21V42.67z"/>
		<path class="st0" d="M34.46,32.75v9.12h-3.6v-5.59L34.46,32.75z"/>
		<path class="st0" d="M5.81,34.74v10.32h-3.6v-6.78L5.81,34.74z"/>
		<path class="st0" d="M2.21,30.93V19.28h3.6v8.26L2.21,30.93z"/>
		<path class="st0" d="M2.21,32.2l12.92-12.92l2.55,2.55L2.21,37.06L2.21,32.2z"/>
		<path class="st0" d="M23.65,32.75L12.72,21.83l2.55-2.55L26.2,30.21L23.65,32.75z"/>
		<path class="st0" d="M30.86,28.81V17.78h3.6v7.44L30.86,28.81z"/>
		<path class="st0" d="M34.46,31.5L24.09,41.87l-2.55-2.55l12.92-12.92L34.46,31.5z"/>
		<path class="st0" d="M15.56,28.4l10.93,10.93l-2.55,2.55L13.01,30.95L15.56,28.4z"/>
	</g>
</g>
<path class="st0" d="M47.9,14.61H178v2.87H47.9V14.61z"/>
<path class="st0" d="M42.29,43.4h66.29v2.87H42.29V43.4z"/>
<path class="st0" d="M118.57,43.4H178v2.87h-59.43V43.4z"/>
<path class="st0" d="M49.34,39.68V21.21h2.37l9.7,14.25h-1.17V21.21h2.83v18.47H60.7l-9.68-14.25h1.17v14.25H49.34z"/>
<path class="st0" d="M70.38,39.68V24.11h-5.13v-2.9h13.13v2.9h-5.13v15.57H70.38z"/>
<path class="st0" d="M83.42,36.78h8.73v2.9h-11.6V21.21h11.3v2.9h-8.42V36.78z M83.2,28.88h7.69v2.82H83.2V28.88z"/>
<path class="st0" d="M95.36,39.68V21.21h6.36c1.37,0,2.54,0.26,3.53,0.78c0.98,0.52,1.74,1.27,2.27,2.26
	c0.53,0.99,0.79,2.16,0.79,3.54c0,1.35-0.26,2.52-0.79,3.48c-0.53,0.97-1.29,1.72-2.27,2.24c-0.98,0.53-2.16,0.79-3.53,0.79h-4.75
	l1.26-1.53v6.91H95.36z M98.23,33.13l-1.26-1.66h4.62c1.27,0,2.22-0.33,2.86-0.98c0.64-0.65,0.96-1.56,0.96-2.72
	c0-1.16-0.32-2.06-0.96-2.7c-0.64-0.64-1.6-0.96-2.86-0.96h-4.62l1.26-1.69V33.13z M105.48,39.68l-3.91-6.7h3.07l3.93,6.7H105.48z"
	/>
<path class="st0" d="M111.52,46.27V21.21h2.87v25.07H111.52z"/>
<path class="st0" d="M118.57,39.68V21.21h2.36l9.7,14.25h-1.17V21.21h2.83v18.47h-2.37l-9.68-14.25h1.17v14.25H118.57z"/>
<path class="st0" d="M140.93,39.68l-6.76-18.47h3.12l6.03,16.7h-1.81l6.14-16.7h2.85l-6.74,18.47H140.93z"/>
<path class="st0" d="M155.01,36.78h8.73v2.9h-11.6V21.21h11.29v2.9h-8.42V36.78z M154.79,28.88h7.69v2.82h-7.69V28.88z"/>
<path class="st0" d="M171.74,39.94c-1.21,0-2.36-0.21-3.46-0.62s-1.98-0.94-2.64-1.6l0.99-2.66c0.62,0.58,1.39,1.07,2.3,1.45
	c0.91,0.39,1.85,0.58,2.81,0.58c0.81,0,1.47-0.11,1.97-0.32c0.5-0.21,0.87-0.5,1.11-0.86c0.24-0.36,0.35-0.77,0.35-1.23
	c0-0.56-0.17-1.02-0.51-1.36c-0.34-0.34-0.78-0.62-1.32-0.82c-0.54-0.2-1.13-0.39-1.79-0.55c-0.66-0.17-1.31-0.37-1.97-0.62
	c-0.66-0.25-1.26-0.56-1.8-0.94c-0.55-0.38-0.98-0.88-1.32-1.52c-0.33-0.63-0.5-1.44-0.5-2.43c0-1,0.22-1.92,0.67-2.76
	c0.45-0.84,1.13-1.5,2.06-2.01c0.92-0.5,2.09-0.75,3.5-0.75c0.93,0,1.85,0.14,2.76,0.42c0.91,0.28,1.71,0.69,2.39,1.21l-0.91,2.66
	c-0.69-0.49-1.41-0.86-2.15-1.1c-0.74-0.24-1.44-0.36-2.12-0.36c-0.78,0-1.42,0.11-1.92,0.34c-0.5,0.23-0.87,0.53-1.1,0.91
	c-0.23,0.38-0.34,0.8-0.34,1.25c0,0.56,0.17,1.02,0.5,1.36c0.33,0.34,0.77,0.61,1.3,0.8c0.54,0.19,1.14,0.38,1.8,0.55
	c0.66,0.18,1.32,0.38,1.97,0.62c0.65,0.24,1.25,0.55,1.79,0.92c0.55,0.38,0.98,0.88,1.32,1.5c0.33,0.62,0.5,1.42,0.5,2.39
	c0,0.99-0.22,1.9-0.67,2.73c-0.45,0.84-1.14,1.5-2.07,2C174.33,39.69,173.16,39.94,171.74,39.94z"/>
</svg>
