<?xml version="1.0" encoding="utf-8"?>
<!-- Generator: Adobe Illustrator 26.0.3, SVG Export Plug-In . SVG Version: 6.00 Build 0)  -->
<svg version="1.1" id="Capa_1" xmlns="http://www.w3.org/2000/svg" xmlns:xlink="http://www.w3.org/1999/xlink" x="0px" y="0px"
	 viewBox="0 0 61 60" style="enable-background:new 0 0 61 60;" xml:space="preserve">
<style type="text/css">
	.st0{fill:#86C178;}
</style>
<g>
	<path class="st0" d="M6.21,6H56v5.56H6.21V6z"/>
	<path class="st0" d="M6.21,49.32H56v5.56H6.21V49.32z"/>
	<path class="st0" d="M56,34.01v14.08h-5.56v-8.63L56,34.01z"/>
	<path class="st0" d="M11.77,37.07V53H6.21V42.53L11.77,37.07z"/>
	<path class="st0" d="M6.21,31.2V13.21h5.56v12.75L6.21,31.2z"/>
	<path class="st0" d="M6.21,33.16l19.95-19.95l3.93,3.93L6.21,40.65L6.21,33.16z"/>
	<path class="st0" d="M39.31,34.01L22.44,17.14l3.93-3.93l16.87,16.87L39.31,34.01z"/>
	<path class="st0" d="M50.44,27.92V10.89H56v11.49L50.44,27.92z"/>
	<path class="st0" d="M56,32.08L39.99,48.09l-3.93-3.93L56,24.21L56,32.08z"/>
	<path class="st0" d="M26.83,27.29L43.7,44.16l-3.93,3.93L22.89,31.22L26.83,27.29z"/>
</g>
</svg>
